name rise37.2698peak67.6939fall79.5734.mot
datacolumns 19
datarows 17
range 5.74997900000000 5.77664200000000
endheader
time	ground_force1_vx	ground_force1_vy	ground_force1_vz	ground_force1_px	ground_force1_py	ground_force1_pz	ground_force2_vx	ground_force2_vy	ground_force2_vz	ground_force2_px	ground_force2_py	ground_force2_pz	ground_torque1_x	ground_torque1_y	ground_torque1_z	ground_torque2_x	ground_torque2_y	ground_torque2_z	
5.74997900000000	-7.68669500000000	41.00538600000000	-7.43347700000000	0.32262300000000	0.00000000000000	0.09539900000000	-53.01590700000000	824.35504700000001	-57.71091200000000	0.09448100000000	0.00000000000000	-0.07898000000000	0.00000000000000	-4.24776200000000	0.00000000000000	0.00000000000000	-17.65301300000000	0.00000000000000	
5.75165000000000	-8.34607400000000	47.73944600000000	-8.33780500000000	0.32636900000000	0.00000000000000	0.09612700000000	-53.69942400000000	821.93721400000004	-57.32947500000000	0.09359300000000	0.00000000000000	-0.07886400000000	0.00000000000000	-4.83626200000000	0.00000000000000	0.00000000000000	-17.57872800000000	0.00000000000000	
5.75331600000000	-8.83787800000000	54.47818900000000	-9.15205000000000	0.32977300000000	0.00000000000000	0.09680900000000	-54.39980700000000	819.39290200000005	-56.92967900000000	0.09270500000000	0.00000000000000	-0.07874500000000	0.00000000000000	-5.38927600000000	0.00000000000000	0.00000000000000	-17.50650500000000	0.00000000000000	
5.75498000000000	-9.14123000000000	61.13007900000000	-9.85656400000000	0.33288000000000	0.00000000000000	0.09745100000000	-55.11686900000000	816.72011399999997	-56.51152400000000	0.09181600000000	0.00000000000000	-0.07862300000000	0.00000000000000	-5.89487100000000	0.00000000000000	0.00000000000000	-17.43644100000000	0.00000000000000	
5.75664900000000	-9.24446200000000	67.62866699999999	-10.43849000000000	0.33572800000000	0.00000000000000	0.09805700000000	-55.85032000000000	813.91678200000001	-56.07502400000000	0.09092600000000	0.00000000000000	-0.07849900000000	0.00000000000000	-6.34472100000000	0.00000000000000	0.00000000000000	-17.36862100000000	0.00000000000000	
5.75831400000000	-9.14488700000000	73.93436199999999	-10.89183500000000	0.33834700000000	0.00000000000000	0.09863200000000	-56.59977000000000	810.98077699999999	-55.62020700000000	0.09003600000000	0.00000000000000	-0.07837200000000	0.00000000000000	-6.73424600000000	0.00000000000000	0.00000000000000	-17.30311000000000	0.00000000000000	
5.75997900000000	-8.84788100000000	80.03368600000000	-11.21695400000000	0.34076500000000	0.00000000000000	0.09917900000000	-57.36472000000000	807.90990999999997	-55.14712000000000	0.08914500000000	0.00000000000000	-0.07824200000000	0.00000000000000	-7.06241700000000	0.00000000000000	0.00000000000000	-17.23995900000000	0.00000000000000	
5.76164400000000	-8.36545600000000	85.93651800000001	-11.41961200000000	0.34300400000000	0.00000000000000	0.09970000000000	-58.14456300000000	804.70194000000004	-54.65582500000000	0.08825300000000	0.00000000000000	-0.07811000000000	0.00000000000000	-7.33130200000000	0.00000000000000	0.00000000000000	-17.17920000000000	0.00000000000000	
5.76331000000000	-7.71454500000000	91.67186900000000	-11.50975700000000	0.34508400000000	0.00000000000000	0.10019800000000	-58.93858000000000	801.35457799999995	-54.14640100000000	0.08736200000000	0.00000000000000	-0.07797600000000	0.00000000000000	-7.54543000000000	0.00000000000000	0.00000000000000	-17.12084800000000	0.00000000000000	
5.76498300000000	-6.91516500000000	97.28282600000000	-11.50017400000000	0.34702100000000	0.00000000000000	0.10067400000000	-59.74594100000000	797.86549600000001	-53.61894800000000	0.08647100000000	0.00000000000000	-0.07783900000000	0.00000000000000	-7.71106500000000	0.00000000000000	0.00000000000000	-17.06489900000000	0.00000000000000	
5.76665100000000	-5.98866100000000	102.82120200000000	-11.40512800000000	0.34883000000000	0.00000000000000	0.10113200000000	-60.56570200000000	794.23233400000004	-53.07358400000000	0.08558000000000	0.00000000000000	-0.07769900000000	0.00000000000000	-7.83546100000000	0.00000000000000	0.00000000000000	-17.01133200000000	0.00000000000000	
5.76831500000000	-4.95613000000000	108.34239300000000	-11.23912800000000	0.35052300000000	0.00000000000000	0.10157100000000	-61.39680500000000	790.45270800000003	-52.51044600000000	0.08469000000000	0.00000000000000	-0.07755700000000	0.00000000000000	-7.92616400000000	0.00000000000000	0.00000000000000	-16.96010300000000	0.00000000000000	
5.76998000000000	-3.83714500000000	113.90081200000000	-11.01588700000000	0.35211100000000	0.00000000000000	0.10199400000000	-62.23807600000000	786.52421900000002	-51.92969400000000	0.08380000000000	0.00000000000000	-0.07741200000000	0.00000000000000	-7.99041500000000	0.00000000000000	0.00000000000000	-16.91115200000000	0.00000000000000	
5.77165100000000	-2.64880700000000	119.54615600000000	-10.74751100000000	0.35360400000000	0.00000000000000	0.10240200000000	-63.08822600000000	782.44446300000004	-51.33151000000000	0.08291300000000	0.00000000000000	-0.07726500000000	0.00000000000000	-8.03466800000000	0.00000000000000	0.00000000000000	-16.86439600000000	0.00000000000000	
5.77331500000000	-1.40515400000000	125.32065299999999	-10.44396600000000	0.35500900000000	0.00000000000000	0.10279500000000	-63.94585400000000	778.21104000000003	-50.71609700000000	0.08202600000000	0.00000000000000	-0.07711600000000	0.00000000000000	-8.06426500000000	0.00000000000000	0.00000000000000	-16.81973300000000	0.00000000000000	
5.77497500000000	-0.11690500000000	131.25732300000001	-10.11278500000000	0.35633400000000	0.00000000000000	0.10317500000000	-64.80944500000000	773.82156999999995	-50.08368200000000	0.08114200000000	0.00000000000000	-0.07696400000000	0.00000000000000	-8.08324000000000	0.00000000000000	0.00000000000000	-16.77704200000000	0.00000000000000	
5.77664200000000	1.20850000000000	137.37920399999999	-9.75901800000000	0.35758500000000	0.00000000000000	0.10354200000000	-65.67737099999999	769.27369899999997	-49.43451700000000	0.08026000000000	0.00000000000000	-0.07680900000000	0.00000000000000	-8.09426700000000	0.00000000000000	0.00000000000000	-16.73618100000000	0.00000000000000	
